<?xml version="1.0" encoding="utf-8"?>
<!-- Generator: Adobe Illustrator 25.0.1, SVG Export Plug-In . SVG Version: 6.00 Build 0)  -->
<svg version="1.1" id="Camada_1" xmlns="http://www.w3.org/2000/svg" xmlns:xlink="http://www.w3.org/1999/xlink" x="0px" y="0px"
	 viewBox="0 0 301.1 69.2" style="enable-background:new 0 0 301.1 69.2;" xml:space="preserve">
<style type="text/css">
	.st0{fill:#F8C200;}
	.st1{fill:#008F37;}
	.st2{fill:#00356C;}
	.st3{clip-path:url(#SVGID_2_);fill:#FFFFFF;}
	.st4{fill:#001545;}
	.st5{fill:#FFFFFF;}
</style>
<g>
	<g>
		<path class="st0" d="M158.4,38.5c4.9,0,6-3.1,6-8.4V1c1.7-0.3,4-0.4,5.4-0.4c1.4,0,3.6,0.1,5.4,0.4v28.2
			c0,10.5-2.9,18.2-15.5,18.2c-3.5,0-7.8-0.9-10.9-2.9c0.4-2.7,1.7-5.8,3.7-7.9C154.2,37.7,156.3,38.5,158.4,38.5z"/>
		<path class="st0" d="M220.1,29.8c0,11.3-6.5,17.9-18.1,17.9c-11.6,0-18.1-6.6-18.1-17.9V1l0.5-0.5h3.9c4.1,0,6.4,2,6.4,6.8V30
			c0,6.1,1.9,9.2,7.4,9.2c5.4,0,7.4-3.1,7.4-9.2V1c1.7-0.3,3.8-0.4,5.2-0.4c1.3,0,3.7,0.1,5.5,0.4V29.8z"/>
		<path class="st0" d="M254.5,1c1.6-0.4,3.3-0.4,4.7-0.4c1.3,0,3.5,0.2,4.9,0.7l0.4,0.5L252,46.7c-2.5,0.3-5.8,0.4-8.6,0.4
			c-3.5,0-6-0.7-7.2-4.8L225.1,1.9c1.9-0.8,4.1-1.5,6.4-1.5c3.2,0,4.8,1.7,5.8,5.3l5.2,19.1c1.1,3.9,1.9,8.3,2.5,12.2
			c0.1,0.7,0.3,0.8,0.7,0.8L254.5,1z"/>
		<path class="st0" d="M300.9,41.7c-0.5,3.3-2.9,5.2-6.8,5.2h-17.8c-3.8,0-6.2-2.4-6.2-6.2V1.5l0.5-0.5h28.8c0.3,1.6,0.4,3,0.4,4.2
			c0,1.2-0.3,3.1-0.9,4.7h-13.6h-4.6c0,1.8,0.1,3.1,0.1,4.8v4.7c1.7-0.1,3.6-0.1,4.5-0.1h10.2c0.4,1.3,0.6,3.2,0.6,4.3
			c0,1.2-0.2,3-0.6,4.3h-10.2h-4.5v5.1c0,1.7-0.1,3-0.1,4.8v0.1c1.5-0.1,3.1-0.1,4.9-0.1h15.5C301.1,38.8,301.1,40.4,300.9,41.7z"/>
	</g>
	<g>
		<g>
			<path class="st1" d="M117,36.5l-2.8,9.4c-1.3,0.3-2.8,0.4-4.4,0.4c-1.6,0-3.8-0.3-5.1-0.7l-0.3-0.5l13.4-41
				c0.6-1.7,2.1-2.9,3.9-3c1.1-0.1,2.2-0.1,3.1-0.1c0.4,0,0.9,0,1.5,0c2.7,0.1,5,1.8,5.8,4.4l12.8,39.8c-1.4,0.8-4,1.2-6,1.2
				c-3.3,0-4.9-1.2-6.3-5.7l-1.2-4.3c-0.8,0.1-1.9,0.1-2.5,0.1h-9.2C118.8,36.6,117.8,36.6,117,36.5z M119.4,28.4
				c0.8,0,1.9-0.1,2.6-0.1h4.8c0.7,0,1.6,0.1,2.3,0.1l-1.1-4c-1-3.7-2.6-9.6-3.7-13.9c0,0-2.4,9.4-3.4,12.9L119.4,28.4z"/>
		</g>
		<g>
			<circle class="st2" cx="124.9" cy="29.8" r="13.3"/>
			<g>
				<defs>
					<circle id="SVGID_1_" cx="124.9" cy="29.8" r="13.3"/>
				</defs>
				<clipPath id="SVGID_2_">
					<use xlink:href="#SVGID_1_"  style="overflow:visible;"/>
				</clipPath>
				<path class="st3" d="M153.6,36.9c-3.6-6.2-9.8-10.7-16.8-12.2c-5.4-1.2-11.1-0.2-16,2.3c-4.6,2.3-8.4,6.1-10.9,10.6
					c0,0,0,0,0,0.1c-1.1,2.1-2,4.4-2.6,6.7c-1.7,6.7-1.7,12.6,1.8,18.6l0.8,1.4l4.1-2.4l-0.8-1.4c-2.8-4.9-3.6-10.5-2.2-16
					c1.4-5.4,4.9-10,9.7-12.8c4.6-2.7,9.9-3.5,15.1-2.4c5.8,1.2,10.8,4.9,13.7,10l0.8,1.4l4.1-2.4L153.6,36.9z"/>
			</g>
		</g>
		<g>
			<path class="st0" d="M129.1,28.4c0,0,2.3,8.1,2.3,8.1l1.2,4.3c1.3,4.5,2.9,5.7,6.3,5.7c2,0,4.6-0.5,6-1.2L131.8,4.6
				c-0.6-2-2.4-3.4-4.5-3.5c-0.9,0-1.8-0.1-2.5-0.1c-1.6,0-3,0.1-4,0.2c-1.2,0.1-2.3,0.9-2.6,2.1c-0.1,0.2-0.1,0.4-0.2,0.6
				c0.1-0.3,0.7-0.5,0.9-0.6c1.3-0.5,2.4,0.6,3,1.6c1.5,2.3,2.1,5.1,2.8,7.7c0.7,2.5,1.4,4.9,2,7.4c0.6,2.2,1.2,4.4,1.8,6.6
				C128.7,27.1,128.9,27.7,129.1,28.4z"/>
		</g>
	</g>
	<g>
		<path class="st4" d="M2.2,66.5c1.2,0.8,2.6,1.4,4,1.4c1.8,0,3-0.8,3-2.2c0-1.2-0.9-2-2.1-2.5l-2.3-1c-1.7-0.7-2.7-1.8-2.7-3.3
			c0-2,1.7-3.7,4.3-3.7c1.5,0,2.9,0.5,4,1c0,0.5-0.3,1-0.6,1.3c-1.1-0.5-2.3-0.9-3.3-0.9c-1.7,0-2.8,0.9-2.8,2.2
			c0,1.1,0.9,1.7,1.9,2.1l2.2,1c1.6,0.7,3,1.8,3,3.6c0,2.2-1.5,3.8-4.7,3.8c-1.7,0-3.4-0.6-4.6-1.5C1.6,67.3,1.9,66.8,2.2,66.5z"/>
		<path class="st4" d="M16.4,69c-0.2,0-0.5,0.1-0.7,0.1c-0.3,0-0.6,0-0.8-0.1v-7.7c0-0.7-0.2-1-0.8-1h-0.2c-0.1-0.2-0.1-0.4-0.1-0.6
			c0-0.2,0-0.3,0.1-0.5c0.4-0.1,0.8-0.1,1-0.1h0.2c0.8,0,1.3,0.6,1.3,1.4V69z M14.4,55.8c0.2-0.1,0.6-0.2,0.9-0.2
			c0.3,0,0.7,0.1,0.9,0.2c0.1,0.2,0.1,0.5,0.1,0.7c0,0.2-0.1,0.6-0.1,0.7c-0.2,0.1-0.6,0.2-0.9,0.2c-0.3,0-0.7-0.1-0.9-0.2
			c-0.1-0.2-0.1-0.5-0.1-0.7C14.3,56.3,14.3,56,14.4,55.8z"/>
		<path class="st4" d="M20.6,67.1c0.8,0.5,1.8,0.9,2.8,0.9c1.3,0,2.1-0.6,2.1-1.6c0-0.7-0.5-1.3-1.5-1.6L23,64.5
			c-1.4-0.5-2.5-1.3-2.5-2.8c0-1.7,1.5-2.7,3.3-2.7c1,0,2.2,0.3,3,0.7c0,0.4-0.2,0.9-0.5,1.2c-0.6-0.3-1.6-0.6-2.6-0.6
			c-1,0-1.8,0.6-1.8,1.5c0,0.7,0.5,1.1,1.5,1.5l1.2,0.5c1.5,0.6,2.5,1.4,2.5,2.9c0,1.8-1.5,2.8-3.7,2.8c-1.4,0-2.6-0.5-3.4-1
			C20,67.9,20.3,67.4,20.6,67.1z"/>
		<path class="st4" d="M35.2,59.8c0,0.2,0,0.4-0.1,0.6l-2.5,0V67c0,0.5,0.2,0.8,0.8,0.8h1.5c0.1,0.2,0.1,0.5,0.1,0.8
			c0,0.1,0,0.2,0,0.3c-0.6,0.1-1.2,0.1-2,0.1c-1.1,0-1.8-0.6-1.8-1.7v-7.1l-1.4,0c0-0.2-0.1-0.4-0.1-0.6c0-0.2,0-0.4,0.1-0.6l1.4,0
			v-2.1c0-0.7,0.1-1,0.8-1h0.5l0.1,0.1v3l2.5,0C35.2,59.4,35.2,59.6,35.2,59.8z"/>
		<path class="st4" d="M39.4,64.5c0.1,2,0.7,3.4,2.6,3.4c1.1,0,2-0.4,2.9-0.8c0.3,0.2,0.5,0.7,0.5,1c-0.9,0.6-2.3,1.1-3.6,1.1
			c-3,0-3.9-2.4-3.9-5.1c0-2.9,1.4-5.1,4-5.1c2.5,0,3.8,1.9,3.8,4.3c0,0.5,0,0.8-0.1,1.3H39.4z M39.4,63.4h4.8v-0.3
			c0-1.7-0.7-3-2.3-3C40.3,60.1,39.5,61.4,39.4,63.4z"/>
		<path class="st4" d="M53.8,60.4c-0.8,0-1.9,0.6-2.6,1.6v7C51,69,50.8,69,50.5,69c-0.3,0-0.6,0-0.8-0.1v-9.7l0.1-0.1h0.6
			c0.7,0,0.8,0.4,0.8,1v0.3c0.8-0.9,1.9-1.4,2.9-1.4c1.1,0,1.9,0.6,2.2,1.5c1-0.9,2.1-1.5,3.2-1.5c1.7,0,2.5,1.4,2.5,3.1v5
			c0,0.7,0.1,1.3,0.2,1.7c-0.2,0.2-0.6,0.3-0.9,0.3c-0.6,0-0.8-0.3-0.8-1v-5.5c0-1.6-0.4-2.2-1.4-2.2c-0.8,0-1.8,0.5-2.6,1.5v0.2V69
			c-0.2,0-0.5,0.1-0.7,0.1c-0.3,0-0.5,0-0.7-0.1v-6.4C55.2,61,54.8,60.4,53.8,60.4z"/>
		<path class="st4" d="M73.2,69.1c-0.7-0.3-1.1-0.7-1.2-1.4c-0.7,0.7-1.8,1.5-3.1,1.5c-1.9,0-2.9-1.5-2.9-2.9c0-2.2,1.5-3.2,3.7-3.2
			c0.7,0,1.5,0,2.2,0.2v-1c0-1.5-0.7-2-1.8-2s-2.2,0.4-3.2,0.8c-0.3-0.2-0.5-0.8-0.5-1.2c1-0.4,2.5-0.9,3.9-0.9
			c2.1,0,3.1,1.2,3.1,3.3v4.1c0,0.8,0.1,1.5,0.6,1.9C73.7,68.6,73.5,69,73.2,69.1z M71.9,66.4v-2c-0.7-0.1-1.5-0.1-2.2-0.1
			c-1.4,0-2.2,0.7-2.2,2c0,1,0.6,1.7,1.6,1.7C69.9,68,71,67.4,71.9,66.4z"/>
		<path class="st4" d="M94.7,55.4V69C94.5,69,94,69,93.8,69c-0.2,0-0.7,0-1-0.1L88,60c-0.5-1-0.9-1.9-1.4-2.7h-0.1
			c0,1.2,0.1,2.9,0.1,4.3V69C86.4,69,86.2,69,86,69c-0.2,0-0.5,0-0.7-0.1V55.4c0.2,0,0.7-0.1,0.9-0.1c0.2,0,0.7,0,1,0.1l4.8,9
			c0.5,1,1,1.9,1.4,2.8h0.1c-0.1-1.5-0.1-3.2-0.1-4.5v-6.3c0-0.7,0.1-1,0.8-1h0.5L94.7,55.4z"/>
		<path class="st4" d="M106.1,69.1c-0.7-0.3-1.1-0.7-1.2-1.4c-0.7,0.7-1.8,1.5-3.1,1.5c-1.9,0-2.9-1.5-2.9-2.9
			c0-2.2,1.5-3.2,3.7-3.2c0.7,0,1.5,0,2.2,0.2v-1c0-1.5-0.7-2-1.8-2c-1.1,0-2.2,0.4-3.2,0.8c-0.3-0.2-0.5-0.8-0.5-1.2
			c1-0.4,2.5-0.9,3.9-0.9c2.1,0,3.1,1.2,3.1,3.3v4.1c0,0.8,0.1,1.5,0.6,1.9C106.7,68.6,106.4,69,106.1,69.1z M104.8,66.4v-2
			c-0.7-0.1-1.5-0.1-2.2-0.1c-1.4,0-2.2,0.7-2.2,2c0,1,0.6,1.7,1.6,1.7C102.8,68,103.9,67.4,104.8,66.4z"/>
		<path class="st4" d="M113.7,60.2c-1.5,0-2.4,1.4-2.4,4c0,2.5,1,3.8,2.5,3.8c1,0,1.8-0.6,2.5-1.1c0.3,0.2,0.6,0.6,0.7,0.9
			c-0.9,0.9-2,1.4-3.4,1.4c-2.8,0-3.9-2.5-3.9-5c0-3.6,1.9-5.2,4-5.2c2.5,0,3.4,1.8,3.4,2.8c0,0.5-0.1,0.9-0.8,0.9
			c-0.2,0-0.4,0-0.6-0.1C115.9,61.5,115.4,60.2,113.7,60.2z"/>
		<path class="st4" d="M122.9,69c-0.2,0-0.5,0.1-0.7,0.1c-0.3,0-0.6,0-0.8-0.1v-7.7c0-0.7-0.2-1-0.8-1h-0.2
			c-0.1-0.2-0.1-0.4-0.1-0.6c0-0.2,0-0.3,0.1-0.5c0.4-0.1,0.8-0.1,1-0.1h0.2c0.8,0,1.3,0.6,1.3,1.4V69z M120.9,55.8
			c0.2-0.1,0.6-0.2,0.9-0.2c0.3,0,0.7,0.1,0.9,0.2c0.1,0.2,0.1,0.5,0.1,0.7c0,0.2-0.1,0.6-0.1,0.7c-0.2,0.1-0.6,0.2-0.9,0.2
			c-0.3,0-0.7-0.1-0.9-0.2c-0.1-0.2-0.1-0.5-0.1-0.7C120.8,56.3,120.8,56,120.9,55.8z"/>
		<path class="st4" d="M133.7,68.2c-0.7,0.7-1.6,1.1-2.7,1.1c-1.1,0-2-0.4-2.7-1.1c-1-1.1-1.4-2.5-1.4-4.1c0-1.6,0.4-3,1.4-4.1
			c0.7-0.7,1.6-1.1,2.7-1.1c1.1,0,2,0.4,2.7,1.1c1,1.1,1.4,2.5,1.4,4.1C135.1,65.7,134.7,67.1,133.7,68.2z M130.9,68.1
			c2,0,2.6-2,2.6-4c0-1.9-0.6-4-2.6-4c-2,0-2.6,2-2.6,4C128.3,66.1,128.9,68.1,130.9,68.1z"/>
		<path class="st4" d="M146.5,67.1c0,0.7,0,1.3,0.2,1.7c-0.2,0.2-0.6,0.3-0.9,0.3c-0.6,0-0.8-0.3-0.8-1v-5.5c0-1.6-0.3-2.2-1.5-2.2
			c-1,0-2.3,0.6-3.1,1.5V69c-0.2,0-0.5,0.1-0.7,0.1c-0.3,0-0.6,0-0.8-0.1v-9.7l0.1-0.1h0.6c0.7,0,0.8,0.4,0.8,1v0.3
			c0.9-0.8,2.2-1.4,3.4-1.4c1.9,0,2.6,1.4,2.6,3.1V67.1z"/>
		<path class="st4" d="M157.6,69.1c-0.7-0.3-1.1-0.7-1.2-1.4c-0.7,0.7-1.8,1.5-3.1,1.5c-1.9,0-2.9-1.5-2.9-2.9
			c0-2.2,1.5-3.2,3.7-3.2c0.7,0,1.5,0,2.2,0.2v-1c0-1.5-0.7-2-1.8-2c-1.1,0-2.2,0.4-3.2,0.8c-0.3-0.2-0.5-0.8-0.5-1.2
			c1-0.4,2.5-0.9,3.9-0.9c2.1,0,3.1,1.2,3.1,3.3v4.1c0,0.8,0.1,1.5,0.6,1.9C158.1,68.6,157.8,69,157.6,69.1z M156.2,66.4v-2
			c-0.7-0.1-1.5-0.1-2.2-0.1c-1.4,0-2.2,0.7-2.2,2c0,1,0.6,1.7,1.6,1.7C154.3,68,155.4,67.4,156.2,66.4z"/>
		<path class="st4" d="M165.3,67.8c0.1,0.2,0.1,0.5,0.1,0.8c0,0.1,0,0.2,0,0.3c-0.4,0.1-1,0.1-1.5,0.1c-1,0-1.7-0.6-1.7-1.7V54.5
			l0.1-0.1h0.5c0.7,0,0.8,0.3,0.8,1V67c0,0.6,0.3,0.9,0.7,0.9H165.3z"/>
		<path class="st4" d="M179.3,59c0.9,0,1.7,0.3,2.5,0.8v-5.4l0.1-0.1h0.5c0.7,0,0.8,0.3,0.8,1v10.9c0,0.8,0.1,1.7,0.6,2.1
			c-0.1,0.3-0.4,0.6-0.7,0.8c-0.7-0.2-1-0.7-1.2-1.3c-0.7,0.8-1.7,1.4-3,1.4c-2.2,0-3.3-2-3.3-5C175.5,60.6,177.5,59,179.3,59z
			 M181.7,66.4v-5.2c-0.7-0.5-1.5-0.9-2.3-0.9c-1.2,0-2.4,1.1-2.4,3.9c0,2.6,1,3.7,2.1,3.7C180,67.9,181.1,67.4,181.7,66.4z"/>
		<path class="st4" d="M188.7,64.5c0.1,2,0.7,3.4,2.6,3.4c1.1,0,2-0.4,2.9-0.8c0.3,0.2,0.5,0.7,0.5,1c-0.9,0.6-2.3,1.1-3.6,1.1
			c-3,0-3.9-2.4-3.9-5.1c0-2.9,1.4-5.1,4-5.1c2.5,0,3.8,1.9,3.8,4.3c0,0.5,0,0.8-0.1,1.3H188.7z M188.7,63.4h4.8v-0.3
			c0-1.7-0.7-3-2.3-3C189.7,60.1,188.8,61.4,188.7,63.4z"/>
		<path class="st4" d="M207.7,67.9c1.7,0,2.3-1,2.3-3.4v-9.1c0.2,0,0.5-0.1,0.8-0.1c0.3,0,0.5,0,0.7,0.1v8.8c0,2.8-0.5,5-3.8,5
			c-1,0-2.2-0.3-3-0.8c0.1-0.5,0.3-0.9,0.6-1.2C205.9,67.6,206.9,67.9,207.7,67.9z"/>
		<path class="st4" d="M216,61.1c0-0.6-0.1-1.2-0.2-1.7c0.2-0.2,0.6-0.3,0.9-0.3c0.6,0,0.8,0.3,0.8,1v5.5c0,1.6,0.3,2.2,1.5,2.2
			c1,0,2.3-0.6,3-1.5v-7.1c0.2-0.1,0.5-0.1,0.7-0.1c0.3,0,0.6,0,0.8,0.1v7c0,0.8,0.1,1.7,0.6,2.1c-0.1,0.3-0.4,0.6-0.7,0.8
			c-0.7-0.3-1.1-0.8-1.3-1.5c-0.9,0.9-2.2,1.5-3.5,1.5c-1.9,0-2.5-1.4-2.5-3.1V61.1z"/>
		<path class="st4" d="M233.7,59.2c0.2-0.1,0.4-0.1,0.6-0.1c0.3,0,0.5,0.1,0.7,0.1l0,0.1c-1,3.1-2.5,7.6-3.3,9.7
			c-0.3,0.1-0.7,0.1-1,0.1c-0.6,0-0.8-0.1-1.1-1l-3-8.8c0.4-0.2,0.7-0.3,0.9-0.3c0.4,0,0.6,0.2,0.7,0.6l1.6,4.7
			c0.4,1.1,0.8,2.5,0.9,3.2c0,0.1,0.1,0.2,0.2,0.2L233.7,59.2z"/>
		<path class="st4" d="M238.7,64.5c0.1,2,0.7,3.4,2.6,3.4c1.1,0,2-0.4,2.9-0.8c0.3,0.2,0.5,0.7,0.5,1c-0.9,0.6-2.3,1.1-3.6,1.1
			c-3,0-3.9-2.4-3.9-5.1c0-2.9,1.4-5.1,4-5.1c2.5,0,3.8,1.9,3.8,4.3c0,0.5,0,0.8-0.1,1.3H238.7z M238.7,63.4h4.8v-0.3
			c0-1.7-0.7-3-2.3-3C239.6,60.1,238.8,61.4,238.7,63.4z"/>
		<path class="st4" d="M256.5,67.1c0,0.7,0,1.3,0.2,1.7c-0.2,0.2-0.6,0.3-0.9,0.3c-0.6,0-0.8-0.3-0.8-1v-5.5c0-1.6-0.3-2.2-1.5-2.2
			c-1,0-2.3,0.6-3.1,1.5V69c-0.2,0-0.5,0.1-0.7,0.1c-0.3,0-0.6,0-0.8-0.1v-9.7l0.1-0.1h0.6c0.7,0,0.8,0.4,0.8,1v0.3
			c0.9-0.8,2.2-1.4,3.4-1.4c1.9,0,2.6,1.4,2.6,3.1V67.1z"/>
		<path class="st4" d="M265.5,59.8c0,0.2,0,0.4-0.1,0.6l-2.5,0V67c0,0.5,0.2,0.8,0.8,0.8h1.5c0.1,0.2,0.1,0.5,0.1,0.8
			c0,0.1,0,0.2,0,0.3c-0.6,0.1-1.2,0.1-2,0.1c-1.1,0-1.8-0.6-1.8-1.7v-7.1l-1.4,0c0-0.2-0.1-0.4-0.1-0.6c0-0.2,0-0.4,0.1-0.6l1.4,0
			v-2.1c0-0.7,0.1-1,0.8-1h0.5l0.1,0.1v3l2.5,0C265.4,59.4,265.5,59.6,265.5,59.8z"/>
		<path class="st4" d="M268.9,61.1c0-0.6-0.1-1.2-0.2-1.7c0.2-0.2,0.6-0.3,0.9-0.3c0.6,0,0.8,0.3,0.8,1v5.5c0,1.6,0.3,2.2,1.5,2.2
			c1,0,2.3-0.6,3-1.5v-7.1c0.2-0.1,0.5-0.1,0.7-0.1c0.3,0,0.6,0,0.8,0.1v7c0,0.8,0.1,1.7,0.6,2.1c-0.1,0.3-0.4,0.6-0.7,0.8
			c-0.7-0.3-1.1-0.8-1.3-1.5c-0.9,0.9-2.2,1.5-3.5,1.5c-1.9,0-2.5-1.4-2.5-3.1V61.1z"/>
		<path class="st4" d="M284,59c0.9,0,1.7,0.3,2.5,0.8v-5.4l0.1-0.1h0.5c0.7,0,0.8,0.3,0.8,1v10.9c0,0.8,0.1,1.7,0.6,2.1
			c-0.1,0.3-0.4,0.6-0.7,0.8c-0.7-0.2-1-0.7-1.2-1.3c-0.7,0.8-1.7,1.4-3,1.4c-2.2,0-3.3-2-3.3-5C280.3,60.6,282.3,59,284,59z
			 M286.5,66.4v-5.2c-0.7-0.5-1.5-0.9-2.3-0.9c-1.2,0-2.4,1.1-2.4,3.9c0,2.6,1,3.7,2.1,3.7C284.8,67.9,285.8,67.4,286.5,66.4z"/>
		<path class="st4" d="M293.5,64.5c0.1,2,0.7,3.4,2.6,3.4c1.1,0,2-0.4,2.9-0.8c0.3,0.2,0.5,0.7,0.5,1c-0.9,0.6-2.3,1.1-3.6,1.1
			c-3,0-3.9-2.4-3.9-5.1c0-2.9,1.4-5.1,4-5.1c2.5,0,3.8,1.9,3.8,4.3c0,0.5,0,0.8-0.1,1.3H293.5z M293.5,63.4h4.8v-0.3
			c0-1.7-0.7-3-2.3-3C294.4,60.1,293.6,61.4,293.5,63.4z"/>
	</g>
	<polygon class="st5" points="121.8,23.9 122.1,24.3 122.5,24.1 122.3,24.5 122.6,24.8 122.1,24.7 121.9,25.1 121.8,24.6 
		121.4,24.6 121.8,24.4 	"/>
	<polygon class="st5" points="120.3,35.5 120.5,35.8 120.8,35.7 120.6,35.9 120.7,36.2 120.4,36.1 120.2,36.3 120.3,36 120,35.9 
		120.3,35.8 	"/>
	<polygon class="st5" points="125.7,35.1 125.8,35.5 126.2,35.5 125.9,35.7 126,36 125.7,35.8 125.4,36 125.5,35.7 125.2,35.5 
		125.6,35.5 	"/>
	<polygon class="st5" points="128.4,38.7 128.3,38.9 128.5,39 128.3,39 128.3,39.2 128.2,39.1 128,39.1 128.1,38.9 128,38.8 
		128.2,38.8 	"/>
	<polygon class="st5" points="128.1,34.7 128.3,35 128.6,34.8 128.5,35.1 128.7,35.4 128.3,35.3 128.2,35.6 128.1,35.2 127.8,35.2 
		128.1,35 	"/>
	<polygon class="st5" points="121,33.1 121.3,33.4 121.7,33.3 121.5,33.6 121.7,33.9 121.3,33.8 121.1,34.2 121.1,33.8 120.7,33.7 
		121.1,33.5 	"/>
	<polygon class="st5" points="117.8,36.4 117.9,36.8 118.3,36.9 117.9,37.1 118,37.5 117.7,37.2 117.3,37.4 117.5,37 117.2,36.7 
		117.6,36.8 	"/>
	<polygon class="st5" points="119.5,38.4 119.6,38.5 119.8,38.5 119.6,38.6 119.7,38.8 119.6,38.7 119.4,38.9 119.5,38.7 
		119.3,38.6 119.5,38.6 	"/>
	<polygon class="st5" points="121.5,40 121.7,40.2 122,40.1 121.9,40.4 122.1,40.6 121.7,40.5 121.6,40.8 121.5,40.5 121.2,40.4 
		121.5,40.3 	"/>
	<polygon class="st5" points="122.2,36.6 122.6,37 123,36.7 122.8,37.2 123.2,37.5 122.7,37.4 122.5,37.9 122.4,37.4 121.9,37.4 
		122.3,37.1 	"/>
	<polygon class="st5" points="125,38.8 125.2,39 125.5,38.9 125.4,39.1 125.6,39.3 125.3,39.3 125.2,39.6 125.1,39.3 124.8,39.2 
		125.1,39.1 	"/>
	<polygon class="st5" points="124.5,33 124.7,33.4 125.1,33.3 124.9,33.6 125.1,33.9 124.7,33.8 124.4,34.1 124.5,33.7 124.1,33.5 
		124.5,33.4 	"/>
	<polygon class="st5" points="127.3,32.8 127.5,33.1 127.8,33 127.6,33.3 127.8,33.5 127.5,33.4 127.3,33.7 127.3,33.3 127,33.2 
		127.3,33.1 	"/>
	<polygon class="st5" points="126.3,30.9 126.5,31.2 126.9,31.1 126.6,31.4 126.9,31.8 126.5,31.6 126.2,31.9 126.2,31.5 
		125.9,31.4 126.3,31.3 	"/>
	<path class="st1" d="M4.1,34.7c3.7,2.3,8.8,4.3,13.6,4.3c3.9,0,5.4-2.2,5.4-4.4c0-1.4-0.5-3.3-4.2-4.9L11,26.4
		c-5.5-2.5-9.6-6-9.6-12.4c0-8.4,7.2-14,16.3-14C24.1,0,30,2.1,33.4,3.8c-0.2,3.1-1.5,6.2-3.6,8c-3.4-1.6-8.5-3.3-12-3.3
		c-3.9,0-5.4,2.2-5.4,3.9s1,3,3.9,4.2l8,3.4c6.4,2.8,10.1,7.4,10.1,13.2c0,8.1-5.9,14.3-17.6,14.3c-5.4,0-12-1.8-16.9-4.9
		C0.3,39.7,2.1,36.5,4.1,34.7z M41.5,1c1.7-0.3,4.1-0.4,5.4-0.4c1.5,0,3.6,0.1,5.4,0.4v45.7c-1.8,0.3-3.9,0.4-5.4,0.4
		c-1.3,0-3.6-0.1-5.4-0.4V1z M98.9,1v45.5c-1.7,0.4-5.2,0.6-6.5,0.6s-3.9-0.1-6.2-0.4L75.7,22.7c-1.5-3.4-2.9-6.9-3.8-9.4l-0.2,0.1
		c0.5,5.7,0.8,14.4,0.8,20v13.3c-1.7,0.3-3.5,0.4-4.9,0.4c-1.3,0-3.4-0.1-5.1-0.4V1.2c1.7-0.4,5-0.6,6.4-0.6S72.7,0.7,75,1
		l10.4,23.9c1.7,3.9,3.2,7.7,4.1,10.2l0.3-0.1C89.3,28.7,89,19.8,89,15.2V7c0-4.7,1.9-6.5,6-6.5h3.5L98.9,1z"/>
</g>
</svg>
